<svg id="camera" xmlns="http://www.w3.org/2000/svg" viewBox="0 0 24 24" color="#131214" fill="none" style="width: 24px; height: 24px;"><path d="M20 15.4909C20 17.1478 18.6568 18.4909 17 18.4909H7.00001C5.34316 18.4909 4.00002 17.1478 4.00001 15.4909L4 9.58185C4 8.47728 4.89543 7.58184 6 7.58184H7.29327C7.96197 7.58184 8.58643 7.24764 8.95737 6.69124L9.22445 6.29062C9.59538 5.73423 10.2198 5.40002 10.8885 5.40002H13.1114C13.7802 5.40002 14.4046 5.73423 14.7755 6.29062L15.0426 6.69124C15.4136 7.24764 16.038 7.58184 16.7067 7.58184H18C19.1046 7.58184 20 8.47727 20 9.58184V15.4909Z" stroke-linecap="round" stroke-linejoin="round" stroke-width="2px" stroke="#131214" fill="none"></path> <path d="M12 15.5818C13.6066 15.5818 14.9091 14.2794 14.9091 12.6728C14.9091 11.0661 13.6066 9.76366 12 9.76366C10.3933 9.76366 9.0909 11.0661 9.0909 12.6728C9.0909 14.2794 10.3933 15.5818 12 15.5818Z" stroke-linecap="round" stroke-linejoin="round" stroke-width="2px" stroke="#131214" fill="none"></path>    </svg>
