<svg xmlns="http://www.w3.org/2000/svg" viewBox="0 0 1440 320"><path fill="#4033ff" fill-opacity="1" d="M0,128L34.3,122.7C68.6,117,137,107,206,106.7C274.3,107,343,117,411,149.3C480,181,549,235,617,218.7C685.7,203,754,117,823,96C891.4,75,960,117,1029,144C1097.1,171,1166,181,1234,170.7C1302.9,160,1371,128,1406,112L1440,96L1440,320L1405.7,320C1371.4,320,1303,320,1234,320C1165.7,320,1097,320,1029,320C960,320,891,320,823,320C754.3,320,686,320,617,320C548.6,320,480,320,411,320C342.9,320,274,320,206,320C137.1,320,69,320,34,320L0,320Z"></path></svg>
